<?xml version="1.0" standalone="no"?><!DOCTYPE svg PUBLIC "-//W3C//DTD SVG 1.1//EN" "http://www.w3.org/Graphics/SVG/1.1/DTD/svg11.dtd"><svg t="1585486249628" class="icon" viewBox="0 0 1024 1024" version="1.1" xmlns="http://www.w3.org/2000/svg" p-id="9155" xmlns:xlink="http://www.w3.org/1999/xlink" width="200" height="200"><defs><style type="text/css"></style></defs><path d="M453.9 514.7h115.7v20H453.9z" p-id="9156" fill="#eb6a59"></path><path d="M501.3 515.2h20v100.3h-20z" p-id="9157" fill="#eb6a59"></path><path d="M452.7 547.2h115.7v20H452.7zM447.832 442.122l16.964-10.594 60.174 96.356-16.964 10.594z" p-id="9158" fill="#eb6a59"></path><path d="M497.409 529.617l59.878-95.835 16.962 10.598-59.878 95.835zM183.6 324.2h263.9v20H183.6zM427.4 764.9h167.8v20H427.4zM477 936.7H75.8v-66.9H477v66.9z m-381.2-20H457v-26.9H95.8v26.9z" p-id="9159" fill="#eb6a59"></path><path d="M447.4 889.8H108.3l82.5-612.5h256.6v121.2h-20V297.3H208.3l-77.1 572.5h296.2V638.6h20z" p-id="9160" fill="#eb6a59"></path><path d="M447.4 297.3H241.3v-83.5h206.2v83.5z m-186.1-20h166.2v-43.5H261.3v43.5z" p-id="9161" fill="#eb6a59"></path><path d="M412 233.8H273.8v-60.6H412v60.6z m-118.2-20H392v-20.6h-98.2v20.6z" p-id="9162" fill="#eb6a59"></path><path d="M392.4 193.2h-99l-21.9-105h142.8l-21.9 105z m-82.7-20h66.5l13.6-65h-93.6l13.5 65zM575.2 325.7h263.9v20H575.2zM946.9 938.3H545.7v-66.9h401.2v66.9z m-381.2-20h361.2v-26.9H565.7v26.9z" p-id="9163" fill="#eb6a59"></path><path d="M914.4 891.3H575.2V640.1h20v231.2h296.3l-77.1-572.5H595.2V400h-20V278.8h256.6z" p-id="9164" fill="#eb6a59"></path><path d="M781.4 298.8H575.2v-83.5h206.2v83.5z m-186.2-20h166.2v-43.5H595.2v43.5z" p-id="9165" fill="#eb6a59"></path><path d="M748.9 235.3H610.7v-60.6h138.2v60.6z m-118.2-20h98.2v-20.6h-98.2v20.6z" p-id="9166" fill="#eb6a59"></path><path d="M729.3 194.7h-99l-21.9-105h142.8l-21.9 105z m-82.7-20H713l13.6-65H633l13.6 65zM512.6 671c-85.4 0-154.8-69.4-154.8-154.8s69.4-154.8 154.8-154.8 154.8 69.4 154.8 154.8c0 85.3-69.4 154.8-154.8 154.8z m0-289.6c-74.3 0-134.8 60.5-134.8 134.8 0 74.3 60.5 134.8 134.8 134.8 74.3 0 134.8-60.5 134.8-134.8 0-74.4-60.4-134.8-134.8-134.8z" p-id="9167" fill="#eb6a59"></path></svg>