<?xml version="1.0" standalone="no"?><!DOCTYPE svg PUBLIC "-//W3C//DTD SVG 1.1//EN" "http://www.w3.org/Graphics/SVG/1.1/DTD/svg11.dtd"><svg t="1585404490454" class="icon" viewBox="0 0 1024 1024" version="1.1" xmlns="http://www.w3.org/2000/svg" p-id="1201" xmlns:xlink="http://www.w3.org/1999/xlink" width="200" height="200"><defs><style type="text/css"></style></defs><path d="M547.837601 827.342911h119.955029c6.715803 0 12.162399-5.446596 12.162398-12.162399v-0.419737l-3.687695-107.55278a36.459213 36.459213 0 0 1 16.309806-31.660212c91.272954-60.502186 147.227983-162.458463 147.227983-273.988757 0-181.406621-147.058089-328.46471-328.454716-328.46471-181.406621 0-328.46471 147.058089-328.46471 328.46471 0 111.550281 55.995003 213.53654 147.287945 274.018738a36.492192 36.492192 0 0 1 16.329794 29.171768l3.807621 110.83073c0.219863 6.555903 5.596502 11.752655 12.162398 11.752655h112.379763V580.267333l-87.405372-92.861961c-13.811368-14.680824-13.111805-37.77639 1.569019-51.597752 14.680824-13.811368 37.77639-13.111805 51.597752 1.56902l72.264834 76.792005 82.898189-78.311056c14.660837-13.841349 37.756402-13.181761 51.597751 1.469082 13.841349 14.650843 13.181761 37.746408-1.469081 51.597751l-98.058714 92.602124v245.816365z m364.951906-425.773892c0.099938 127.410369-60.362274 247.285447-162.888195 322.918177l3.00812 87.77514a85.156777 85.156777 0 0 1-85.116802 88.074953H362.443473c-45.891318 0.009994-83.527795-36.36727-85.106808-82.238601l-3.178014-92.602123C170.833229 649.933791 109.79138 529.579013 109.891318 401.569019 109.891318 179.847595 289.638976 0.109931 511.350406 0.109931c221.701437 0 401.439101 179.737664 401.439101 401.459088z m-510.930669 620.422236c-20.157402 0-36.497189-16.339788-36.497189-36.497189 0-20.147408 16.339788-36.487196 36.497189-36.487195H620.83198c20.157402 0 36.497189 16.339788 36.497189 36.487195 0 20.157402-16.339788 36.497189-36.497189 36.497189H401.858838z m0 0" fill="#ffffff" p-id="1202"></path></svg>