<?xml version="1.0" encoding="utf-8"?>
<svg version="1.1" xmlns:xlink="http://www.w3.org/1999/xlink" width="365px" height="165px" xmlns="http://www.w3.org/2000/svg">
  <defs>
    <filter x="5px" y="-3px" width="365px" height="165px" filterUnits="userSpaceOnUse" id="filter109">
      <feOffset dx="0" dy="0" in="SourceAlpha" result="shadowOffsetInner" />
      <feGaussianBlur stdDeviation="1.5" in="shadowOffsetInner" result="shadowGaussian" />
      <feComposite in2="shadowGaussian" operator="atop" in="SourceAlpha" result="shadowComposite" />
      <feColorMatrix type="matrix" values="0 0 0 0 0.6  0 0 0 0 0.6  0 0 0 0 0.6  0 0 0 0.349019607843137 0  " in="shadowComposite" />
    </filter>
    <g id="widget110">
      <path d="M 8 138.979653362702  C 8 138.979653362702  8 10  8 10  C 8 4.47715250169207  12.4771525016921 0  18 0  C 18 0  357 0  357 0  C 362.522847498308 0  367 4.47715250169207  367 10  C 367 10  367 138.979653362702  367 138.979653362702  C 367 144.50250086101  362.522847498308 148.979653362702  357 148.979653362702  C 357 148.979653362702  125 148.979653362702  125 148.979653362702  C 125 148.979653362702  113 159  113 159  C 113 159  99 148.979653362702  99 148.979653362702  C 99 148.979653362702  18 148.979653362702  18 148.979653362702  C 12.4771525016921 148.979653362702  8 144.50250086101  8 138.979653362702  Z " fill-rule="nonzero" fill="#78e4ae" stroke="none" fill-opacity="0.698039215686274" />
    </g>
  </defs>
  <g transform="matrix(1 0 0 1 -5 3 )">
    <use xlink:href="#widget110" filter="url(#filter109)" />
    <use xlink:href="#widget110" />
  </g>
</svg>